<svg width="599" height="200" viewBox="0 0 599 200" fill="none" xmlns="http://www.w3.org/2000/svg">
<path d="M0.528 44.5L13.104 8.74H20.112L32.688 44.5H26.64L23.904 36.484H9.36L6.576 44.5H0.528ZM10.992 31.444H22.176L15.84 12.724H17.424L10.992 31.444ZM47.4649 45.076C44.9689 45.076 42.7289 44.484 40.7449 43.3C38.7929 42.084 37.2409 40.452 36.0889 38.404C34.9689 36.356 34.4089 34.052 34.4089 31.492C34.4089 28.932 34.9849 26.628 36.1369 24.58C37.2889 22.532 38.8409 20.916 40.7929 19.732C42.7449 18.548 44.9529 17.956 47.4169 17.956C49.4969 17.956 51.3369 18.372 52.9369 19.204C54.5369 20.036 55.8009 21.188 56.7289 22.66L55.9129 23.908V8.164H61.2889V44.5H56.1529V39.22L56.7769 40.228C55.8809 41.796 54.6009 42.996 52.9369 43.828C51.2729 44.66 49.4489 45.076 47.4649 45.076ZM47.9929 40.036C49.4969 40.036 50.8409 39.668 52.0249 38.932C53.2409 38.196 54.1849 37.188 54.8569 35.908C55.5609 34.596 55.9129 33.124 55.9129 31.492C55.9129 29.86 55.5609 28.404 54.8569 27.124C54.1849 25.844 53.2409 24.836 52.0249 24.1C50.8409 23.364 49.4969 22.996 47.9929 22.996C46.4889 22.996 45.1289 23.364 43.9129 24.1C42.6969 24.836 41.7529 25.844 41.0809 27.124C40.4089 28.404 40.0729 29.86 40.0729 31.492C40.0729 33.124 40.4089 34.596 41.0809 35.908C41.7529 37.188 42.6809 38.196 43.8649 38.932C45.0809 39.668 46.4569 40.036 47.9929 40.036ZM75.3971 45.076C73.6371 45.076 72.0851 44.772 70.7411 44.164C69.4291 43.524 68.4051 42.66 67.6691 41.572C66.9331 40.452 66.5651 39.14 66.5651 37.636C66.5651 36.228 66.8691 34.964 67.4771 33.844C68.1171 32.724 69.0931 31.78 70.4051 31.012C71.7171 30.244 73.3651 29.7 75.3491 29.38L84.3731 27.892V32.164L76.4051 33.556C74.9651 33.812 73.9091 34.276 73.2371 34.948C72.5651 35.588 72.2291 36.42 72.2291 37.444C72.2291 38.436 72.5971 39.252 73.3331 39.892C74.1011 40.5 75.0771 40.804 76.2611 40.804C77.7331 40.804 79.0131 40.484 80.1011 39.844C81.2211 39.204 82.0851 38.356 82.6931 37.3C83.3011 36.212 83.6051 35.012 83.6051 33.7V27.028C83.6051 25.748 83.1251 24.708 82.1651 23.908C81.2371 23.076 79.9891 22.66 78.4211 22.66C76.9811 22.66 75.7171 23.044 74.6291 23.812C73.5731 24.548 72.7891 25.508 72.2771 26.692L67.7651 24.436C68.2451 23.156 69.0291 22.036 70.1171 21.076C71.2051 20.084 72.4691 19.316 73.9091 18.772C75.3811 18.228 76.9331 17.956 78.5651 17.956C80.6131 17.956 82.4211 18.34 83.9891 19.108C85.5891 19.876 86.8211 20.948 87.6851 22.324C88.5811 23.668 89.0291 25.236 89.0291 27.028V44.5H83.8451V39.796L84.9491 39.94C84.3411 40.996 83.5571 41.908 82.5971 42.676C81.6691 43.444 80.5971 44.036 79.3811 44.452C78.1971 44.868 76.8691 45.076 75.3971 45.076ZM103.762 54.1V18.532H108.946V23.908L108.322 22.66C109.282 21.188 110.562 20.036 112.162 19.204C113.762 18.372 115.586 17.956 117.634 17.956C120.098 17.956 122.306 18.548 124.258 19.732C126.242 20.916 127.794 22.532 128.914 24.58C130.066 26.628 130.642 28.932 130.642 31.492C130.642 34.052 130.066 36.356 128.914 38.404C127.794 40.452 126.258 42.084 124.306 43.3C122.354 44.484 120.13 45.076 117.634 45.076C115.618 45.076 113.778 44.66 112.114 43.828C110.482 42.996 109.218 41.796 108.322 40.228L109.186 39.22V54.1H103.762ZM117.106 40.036C118.642 40.036 120.002 39.668 121.186 38.932C122.37 38.196 123.298 37.188 123.97 35.908C124.674 34.596 125.026 33.124 125.026 31.492C125.026 29.86 124.674 28.404 123.97 27.124C123.298 25.844 122.37 24.836 121.186 24.1C120.002 23.364 118.642 22.996 117.106 22.996C115.602 22.996 114.242 23.364 113.026 24.1C111.842 24.836 110.898 25.844 110.194 27.124C109.522 28.404 109.186 29.86 109.186 31.492C109.186 33.124 109.522 34.596 110.194 35.908C110.898 37.188 111.842 38.196 113.026 38.932C114.242 39.668 115.602 40.036 117.106 40.036ZM148.11 45.076C145.518 45.076 143.214 44.484 141.198 43.3C139.214 42.084 137.662 40.452 136.542 38.404C135.422 36.324 134.862 34.004 134.862 31.444C134.862 28.82 135.422 26.5 136.542 24.484C137.694 22.468 139.23 20.884 141.15 19.732C143.07 18.548 145.246 17.956 147.678 17.956C149.63 17.956 151.374 18.292 152.91 18.964C154.446 19.636 155.742 20.564 156.798 21.748C157.854 22.9 158.654 24.228 159.198 25.732C159.774 27.236 160.062 28.836 160.062 30.532C160.062 30.948 160.046 31.38 160.014 31.828C159.982 32.276 159.918 32.692 159.822 33.076H139.134V28.756H156.75L154.158 30.724C154.478 29.156 154.366 27.764 153.822 26.548C153.31 25.3 152.51 24.324 151.422 23.62C150.366 22.884 149.118 22.516 147.678 22.516C146.238 22.516 144.958 22.884 143.838 23.62C142.718 24.324 141.854 25.348 141.246 26.692C140.638 28.004 140.398 29.604 140.526 31.492C140.366 33.252 140.606 34.788 141.246 36.1C141.918 37.412 142.846 38.436 144.03 39.172C145.246 39.908 146.622 40.276 148.158 40.276C149.726 40.276 151.054 39.924 152.142 39.22C153.262 38.516 154.142 37.604 154.782 36.484L159.198 38.644C158.686 39.86 157.886 40.964 156.798 41.956C155.742 42.916 154.462 43.684 152.958 44.26C151.486 44.804 149.87 45.076 148.11 45.076ZM165.355 44.5V18.532H170.54V23.764L170.06 22.996C170.636 21.3 171.564 20.084 172.844 19.348C174.124 18.58 175.66 18.196 177.452 18.196H179.036V23.14H176.78C174.988 23.14 173.532 23.7 172.412 24.82C171.324 25.908 170.78 27.476 170.78 29.524V44.5H165.355ZM194.447 44.788C191.727 44.788 189.615 44.02 188.111 42.484C186.607 40.948 185.855 38.788 185.855 36.004V23.428H181.295V18.532H182.015C183.231 18.532 184.175 18.18 184.847 17.476C185.519 16.772 185.855 15.812 185.855 14.596V12.58H191.279V18.532H197.183V23.428H191.279V35.764C191.279 36.66 191.423 37.428 191.711 38.068C191.999 38.676 192.463 39.156 193.103 39.508C193.743 39.828 194.575 39.988 195.599 39.988C195.855 39.988 196.143 39.972 196.463 39.94C196.783 39.908 197.087 39.876 197.375 39.844V44.5C196.927 44.564 196.431 44.628 195.887 44.692C195.343 44.756 194.863 44.788 194.447 44.788ZM210.21 45.076C208.45 45.076 206.898 44.772 205.554 44.164C204.242 43.524 203.218 42.66 202.482 41.572C201.746 40.452 201.378 39.14 201.378 37.636C201.378 36.228 201.682 34.964 202.29 33.844C202.93 32.724 203.906 31.78 205.218 31.012C206.53 30.244 208.178 29.7 210.162 29.38L219.186 27.892V32.164L211.218 33.556C209.778 33.812 208.722 34.276 208.05 34.948C207.378 35.588 207.042 36.42 207.042 37.444C207.042 38.436 207.41 39.252 208.146 39.892C208.914 40.5 209.89 40.804 211.074 40.804C212.546 40.804 213.826 40.484 214.914 39.844C216.034 39.204 216.898 38.356 217.506 37.3C218.114 36.212 218.418 35.012 218.418 33.7V27.028C218.418 25.748 217.938 24.708 216.978 23.908C216.05 23.076 214.802 22.66 213.234 22.66C211.794 22.66 210.53 23.044 209.442 23.812C208.386 24.548 207.602 25.508 207.09 26.692L202.578 24.436C203.058 23.156 203.842 22.036 204.93 21.076C206.018 20.084 207.282 19.316 208.722 18.772C210.194 18.228 211.746 17.956 213.378 17.956C215.426 17.956 217.234 18.34 218.802 19.108C220.402 19.876 221.634 20.948 222.498 22.324C223.394 23.668 223.842 25.236 223.842 27.028V44.5H218.658V39.796L219.762 39.94C219.154 40.996 218.37 41.908 217.41 42.676C216.482 43.444 215.41 44.036 214.194 44.452C213.01 44.868 211.682 45.076 210.21 45.076ZM230.184 44.5V18.532H235.368V23.62L234.744 22.948C235.384 21.316 236.408 20.084 237.816 19.252C239.224 18.388 240.856 17.956 242.712 17.956C244.632 17.956 246.328 18.372 247.8 19.204C249.272 20.036 250.424 21.188 251.256 22.66C252.088 24.132 252.504 25.828 252.504 27.748V44.5H247.128V29.188C247.128 27.876 246.888 26.772 246.408 25.876C245.928 24.948 245.24 24.244 244.344 23.764C243.48 23.252 242.488 22.996 241.368 22.996C240.248 22.996 239.24 23.252 238.344 23.764C237.48 24.244 236.808 24.948 236.328 25.876C235.848 26.804 235.608 27.908 235.608 29.188V44.5H230.184ZM260.144 55.06C259.504 55.06 258.864 54.996 258.224 54.868C257.616 54.772 257.056 54.612 256.544 54.388V49.732C256.928 49.828 257.392 49.908 257.936 49.972C258.48 50.068 259.008 50.116 259.52 50.116C261.024 50.116 262.128 49.78 262.832 49.108C263.568 48.468 264.224 47.476 264.8 46.132L266.528 42.196L266.432 46.756L255.2 18.532H261.008L269.312 40.18H267.344L275.6 18.532H281.456L269.984 47.332C269.376 48.868 268.608 50.212 267.68 51.364C266.784 52.548 265.712 53.46 264.464 54.1C263.248 54.74 261.808 55.06 260.144 55.06ZM292.007 45.076C290.247 45.076 288.695 44.772 287.351 44.164C286.039 43.524 285.015 42.66 284.279 41.572C283.543 40.452 283.175 39.14 283.175 37.636C283.175 36.228 283.479 34.964 284.087 33.844C284.727 32.724 285.703 31.78 287.015 31.012C288.327 30.244 289.975 29.7 291.959 29.38L300.983 27.892V32.164L293.015 33.556C291.575 33.812 290.519 34.276 289.847 34.948C289.175 35.588 288.839 36.42 288.839 37.444C288.839 38.436 289.207 39.252 289.943 39.892C290.711 40.5 291.687 40.804 292.871 40.804C294.343 40.804 295.623 40.484 296.711 39.844C297.831 39.204 298.695 38.356 299.303 37.3C299.911 36.212 300.215 35.012 300.215 33.7V27.028C300.215 25.748 299.735 24.708 298.775 23.908C297.847 23.076 296.599 22.66 295.031 22.66C293.591 22.66 292.327 23.044 291.239 23.812C290.183 24.548 289.399 25.508 288.887 26.692L284.375 24.436C284.855 23.156 285.639 22.036 286.727 21.076C287.815 20.084 289.079 19.316 290.519 18.772C291.991 18.228 293.543 17.956 295.174 17.956C297.223 17.956 299.031 18.34 300.599 19.108C302.199 19.876 303.431 20.948 304.295 22.324C305.191 23.668 305.639 25.236 305.639 27.028V44.5H300.455V39.796L301.559 39.94C300.951 40.996 300.167 41.908 299.207 42.676C298.279 43.444 297.207 44.036 295.991 44.452C294.807 44.868 293.479 45.076 292.007 45.076ZM319.757 45.076C317.997 45.076 316.445 44.772 315.101 44.164C313.789 43.524 312.765 42.66 312.029 41.572C311.293 40.452 310.925 39.14 310.925 37.636C310.925 36.228 311.229 34.964 311.837 33.844C312.477 32.724 313.453 31.78 314.765 31.012C316.077 30.244 317.725 29.7 319.709 29.38L328.733 27.892V32.164L320.765 33.556C319.325 33.812 318.269 34.276 317.597 34.948C316.925 35.588 316.589 36.42 316.589 37.444C316.589 38.436 316.957 39.252 317.693 39.892C318.461 40.5 319.437 40.804 320.621 40.804C322.093 40.804 323.373 40.484 324.461 39.844C325.581 39.204 326.445 38.356 327.053 37.3C327.661 36.212 327.965 35.012 327.965 33.7V27.028C327.965 25.748 327.485 24.708 326.525 23.908C325.597 23.076 324.349 22.66 322.781 22.66C321.341 22.66 320.077 23.044 318.989 23.812C317.933 24.548 317.149 25.508 316.637 26.692L312.125 24.436C312.605 23.156 313.389 22.036 314.477 21.076C315.565 20.084 316.829 19.316 318.269 18.772C319.741 18.228 321.293 17.956 322.924 17.956C324.973 17.956 326.781 18.34 328.349 19.108C329.949 19.876 331.181 20.948 332.045 22.324C332.941 23.668 333.389 25.236 333.389 27.028V44.5H328.205V39.796L329.309 39.94C328.701 40.996 327.917 41.908 326.957 42.676C326.029 43.444 324.957 44.036 323.741 44.452C322.557 44.868 321.229 45.076 319.757 45.076ZM339.73 44.5V18.532H344.915V23.62L344.291 22.948C344.931 21.316 345.955 20.084 347.363 19.252C348.771 18.388 350.403 17.956 352.259 17.956C354.179 17.956 355.875 18.372 357.347 19.204C358.819 20.036 359.971 21.188 360.802 22.66C361.635 24.132 362.051 25.828 362.051 27.748V44.5H356.675V29.188C356.675 27.876 356.435 26.772 355.955 25.876C355.475 24.948 354.787 24.244 353.891 23.764C353.027 23.252 352.035 22.996 350.915 22.996C349.795 22.996 348.787 23.252 347.891 23.764C347.027 24.244 346.355 24.948 345.875 25.876C345.395 26.804 345.155 27.908 345.155 29.188V44.5H339.73ZM374.096 33.844V33.028C374.096 31.62 374.32 30.372 374.768 29.284C375.248 28.196 375.84 27.22 376.544 26.356C377.28 25.46 378.032 24.644 378.799 23.908C379.888 22.884 380.848 21.892 381.68 20.932C382.544 19.972 382.976 18.852 382.976 17.572C382.976 16.772 382.784 16.052 382.4 15.412C382.016 14.74 381.44 14.212 380.672 13.828C379.936 13.412 379.024 13.204 377.936 13.204C376.432 13.204 375.136 13.668 374.048 14.596C372.992 15.492 372.32 16.708 372.032 18.244L366.992 17.044C367.28 15.284 367.92 13.748 368.912 12.436C369.936 11.092 371.216 10.052 372.752 9.316C374.32 8.548 376.08 8.164 378.032 8.164C380.24 8.164 382.128 8.612 383.696 9.508C385.296 10.372 386.512 11.508 387.344 12.916C388.176 14.324 388.592 15.844 388.592 17.476C388.592 18.788 388.32 19.972 387.776 21.028C387.264 22.052 386.592 22.996 385.76 23.86C384.96 24.724 384.128 25.572 383.264 26.404C382.24 27.396 381.328 28.436 380.528 29.524C379.76 30.58 379.376 31.828 379.376 33.268V33.844H374.096ZM374.096 44.5V38.26H379.616V44.5H374.096ZM10.032 92.5V61.78H0.528V56.74H25.008V61.78H15.648V92.5H10.032ZM36.057 93.076C34.105 93.076 32.393 92.644 30.921 91.78C29.449 90.884 28.297 89.652 27.465 88.084C26.665 86.484 26.265 84.644 26.265 82.564V66.532H31.689V82.084C31.689 83.268 31.929 84.308 32.409 85.204C32.889 86.1 33.561 86.804 34.425 87.316C35.289 87.796 36.281 88.036 37.401 88.036C38.553 88.036 39.561 87.78 40.425 87.268C41.289 86.756 41.961 86.036 42.441 85.108C42.953 84.18 43.209 83.092 43.209 81.844V66.532H48.585V92.5H43.449V87.412L44.025 88.084C43.417 89.684 42.409 90.916 41.001 91.78C39.593 92.644 37.945 93.076 36.057 93.076ZM54.918 92.5V56.164H60.342V92.5H54.918ZM66.6836 92.5V66.532H72.1076V92.5H66.6836ZM66.6836 62.98V56.74H72.1076V62.98H66.6836ZM88.0493 93.076C85.3933 93.076 83.0573 92.42 81.0413 91.108C79.0573 89.796 77.6653 88.036 76.8652 85.828L81.0413 83.86C81.7453 85.332 82.7053 86.5 83.9213 87.364C85.1693 88.228 86.5453 88.66 88.0493 88.66C89.3293 88.66 90.3693 88.372 91.1693 87.796C91.9693 87.22 92.3693 86.436 92.3693 85.444C92.3693 84.804 92.1933 84.292 91.8413 83.908C91.4893 83.492 91.0413 83.156 90.4973 82.9C89.9853 82.644 89.4573 82.452 88.9133 82.324L84.8333 81.172C82.5933 80.532 80.9133 79.572 79.7933 78.292C78.7053 76.98 78.1613 75.46 78.1613 73.732C78.1613 72.164 78.5613 70.804 79.3613 69.652C80.1613 68.468 81.2653 67.556 82.6733 66.916C84.0813 66.276 85.6653 65.956 87.4253 65.956C89.7933 65.956 91.9053 66.548 93.7613 67.732C95.6173 68.884 96.9293 70.5 97.6973 72.58L93.5213 74.548C93.0093 73.3 92.1933 72.308 91.0733 71.572C89.9853 70.836 88.7533 70.468 87.3773 70.468C86.1933 70.468 85.2493 70.756 84.5453 71.332C83.8413 71.876 83.4893 72.596 83.4893 73.492C83.4893 74.1 83.6493 74.612 83.9693 75.028C84.2893 75.412 84.7053 75.732 85.2173 75.988C85.7293 76.212 86.2573 76.404 86.8013 76.564L91.0253 77.812C93.1693 78.42 94.8173 79.38 95.9693 80.692C97.1213 81.972 97.6973 83.508 97.6973 85.3C97.6973 86.836 97.2813 88.196 96.4493 89.38C95.6493 90.532 94.5293 91.444 93.0893 92.116C91.6493 92.756 89.9693 93.076 88.0493 93.076ZM119.178 93.076C117.418 93.076 115.866 92.772 114.522 92.164C113.21 91.524 112.186 90.66 111.45 89.572C110.714 88.452 110.346 87.14 110.346 85.636C110.346 84.228 110.65 82.964 111.258 81.844C111.898 80.724 112.874 79.78 114.186 79.012C115.498 78.244 117.146 77.7 119.13 77.38L128.154 75.892V80.164L120.186 81.556C118.746 81.812 117.69 82.276 117.018 82.948C116.346 83.588 116.01 84.42 116.01 85.444C116.01 86.436 116.378 87.252 117.114 87.892C117.882 88.5 118.858 88.804 120.042 88.804C121.514 88.804 122.794 88.484 123.882 87.844C125.002 87.204 125.866 86.356 126.474 85.3C127.082 84.212 127.386 83.012 127.386 81.7V75.028C127.386 73.748 126.906 72.708 125.946 71.908C125.018 71.076 123.77 70.66 122.202 70.66C120.762 70.66 119.498 71.044 118.41 71.812C117.354 72.548 116.57 73.508 116.058 74.692L111.546 72.436C112.026 71.156 112.81 70.036 113.898 69.076C114.986 68.084 116.25 67.316 117.69 66.772C119.162 66.228 120.714 65.956 122.346 65.956C124.394 65.956 126.202 66.34 127.77 67.108C129.37 67.876 130.602 68.948 131.466 70.324C132.362 71.668 132.81 73.236 132.81 75.028V92.5H127.626V87.796L128.73 87.94C128.122 88.996 127.338 89.908 126.378 90.676C125.45 91.444 124.378 92.036 123.162 92.452C121.978 92.868 120.65 93.076 119.178 93.076ZM149.916 92.788C147.196 92.788 145.084 92.02 143.58 90.484C142.076 88.948 141.324 86.788 141.324 84.004V71.428H136.764V66.532H137.484C138.7 66.532 139.644 66.18 140.316 65.476C140.988 64.772 141.324 63.812 141.324 62.596V60.58H146.748V66.532H152.652V71.428H146.748V83.764C146.748 84.66 146.892 85.428 147.18 86.068C147.468 86.676 147.932 87.156 148.572 87.508C149.212 87.828 150.044 87.988 151.068 87.988C151.324 87.988 151.612 87.972 151.932 87.94C152.252 87.908 152.556 87.876 152.844 87.844V92.5C152.396 92.564 151.9 92.628 151.356 92.692C150.812 92.756 150.332 92.788 149.916 92.788ZM165.678 93.076C163.918 93.076 162.366 92.772 161.022 92.164C159.71 91.524 158.686 90.66 157.95 89.572C157.214 88.452 156.846 87.14 156.846 85.636C156.846 84.228 157.15 82.964 157.758 81.844C158.398 80.724 159.374 79.78 160.686 79.012C161.998 78.244 163.646 77.7 165.63 77.38L174.654 75.892V80.164L166.686 81.556C165.246 81.812 164.19 82.276 163.518 82.948C162.846 83.588 162.51 84.42 162.51 85.444C162.51 86.436 162.878 87.252 163.614 87.892C164.382 88.5 165.358 88.804 166.542 88.804C168.014 88.804 169.294 88.484 170.382 87.844C171.502 87.204 172.366 86.356 172.974 85.3C173.582 84.212 173.886 83.012 173.886 81.7V75.028C173.886 73.748 173.406 72.708 172.446 71.908C171.518 71.076 170.27 70.66 168.702 70.66C167.262 70.66 165.998 71.044 164.91 71.812C163.854 72.548 163.07 73.508 162.558 74.692L158.046 72.436C158.526 71.156 159.31 70.036 160.398 69.076C161.486 68.084 162.75 67.316 164.19 66.772C165.662 66.228 167.214 65.956 168.846 65.956C170.894 65.956 172.702 66.34 174.27 67.108C175.87 67.876 177.102 68.948 177.966 70.324C178.862 71.668 179.31 73.236 179.31 75.028V92.5H174.126V87.796L175.23 87.94C174.622 88.996 173.838 89.908 172.878 90.676C171.95 91.444 170.878 92.036 169.662 92.452C168.478 92.868 167.15 93.076 165.678 93.076ZM194.916 93.076C192.964 93.076 191.252 92.644 189.78 91.78C188.308 90.884 187.156 89.652 186.324 88.084C185.524 86.484 185.124 84.644 185.124 82.564V66.532H190.548V82.084C190.548 83.268 190.788 84.308 191.268 85.204C191.748 86.1 192.42 86.804 193.284 87.316C194.148 87.796 195.14 88.036 196.26 88.036C197.412 88.036 198.42 87.78 199.284 87.268C200.148 86.756 200.82 86.036 201.3 85.108C201.812 84.18 202.068 83.092 202.068 81.844V66.532H207.444V92.5H202.308V87.412L202.884 88.084C202.276 89.684 201.268 90.916 199.86 91.78C198.452 92.644 196.804 93.076 194.916 93.076ZM233.4 92.788C230.68 92.788 228.568 92.02 227.064 90.484C225.56 88.948 224.808 86.788 224.808 84.004V71.428H220.248V66.532H220.968C222.184 66.532 223.128 66.18 223.8 65.476C224.472 64.772 224.808 63.812 224.808 62.596V60.58H230.232V66.532H236.136V71.428H230.232V83.764C230.232 84.66 230.376 85.428 230.664 86.068C230.952 86.676 231.416 87.156 232.056 87.508C232.696 87.828 233.528 87.988 234.552 87.988C234.808 87.988 235.096 87.972 235.416 87.94C235.736 87.908 236.04 87.876 236.328 87.844V92.5C235.88 92.564 235.384 92.628 234.84 92.692C234.296 92.756 233.816 92.788 233.4 92.788ZM253.344 93.076C250.752 93.076 248.448 92.484 246.432 91.3C244.448 90.084 242.896 88.452 241.776 86.404C240.656 84.324 240.096 82.004 240.096 79.444C240.096 76.82 240.656 74.5 241.776 72.484C242.928 70.468 244.464 68.884 246.384 67.732C248.304 66.548 250.48 65.956 252.912 65.956C254.864 65.956 256.608 66.292 258.144 66.964C259.68 67.636 260.976 68.564 262.032 69.748C263.088 70.9 263.888 72.228 264.432 73.732C265.008 75.236 265.296 76.836 265.296 78.532C265.296 78.948 265.28 79.38 265.248 79.828C265.216 80.276 265.152 80.692 265.056 81.076H244.368V76.756H261.984L259.392 78.724C259.712 77.156 259.6 75.764 259.056 74.548C258.544 73.3 257.744 72.324 256.656 71.62C255.6 70.884 254.352 70.516 252.912 70.516C251.472 70.516 250.192 70.884 249.072 71.62C247.952 72.324 247.088 73.348 246.48 74.692C245.872 76.004 245.632 77.604 245.76 79.492C245.6 81.252 245.84 82.788 246.48 84.1C247.152 85.412 248.08 86.436 249.264 87.172C250.48 87.908 251.856 88.276 253.392 88.276C254.96 88.276 256.288 87.924 257.376 87.22C258.496 86.516 259.376 85.604 260.016 84.484L264.432 86.644C263.92 87.86 263.12 88.964 262.032 89.956C260.976 90.916 259.696 91.684 258.192 92.26C256.72 92.804 255.104 93.076 253.344 93.076ZM270.59 92.5V56.164H276.014V92.5H270.59ZM294.548 93.076C291.956 93.076 289.652 92.484 287.636 91.3C285.652 90.084 284.1 88.452 282.98 86.404C281.86 84.324 281.3 82.004 281.3 79.444C281.3 76.82 281.86 74.5 282.98 72.484C284.132 70.468 285.668 68.884 287.588 67.732C289.508 66.548 291.684 65.956 294.116 65.956C296.068 65.956 297.812 66.292 299.348 66.964C300.884 67.636 302.18 68.564 303.236 69.748C304.292 70.9 305.092 72.228 305.635 73.732C306.212 75.236 306.5 76.836 306.5 78.532C306.5 78.948 306.484 79.38 306.452 79.828C306.42 80.276 306.356 80.692 306.26 81.076H285.572V76.756H303.188L300.596 78.724C300.916 77.156 300.804 75.764 300.26 74.548C299.748 73.3 298.948 72.324 297.86 71.62C296.804 70.884 295.556 70.516 294.116 70.516C292.676 70.516 291.396 70.884 290.276 71.62C289.156 72.324 288.292 73.348 287.684 74.692C287.076 76.004 286.836 77.604 286.964 79.492C286.804 81.252 287.044 82.788 287.684 84.1C288.356 85.412 289.284 86.436 290.468 87.172C291.684 87.908 293.06 88.276 294.596 88.276C296.164 88.276 297.492 87.924 298.58 87.22C299.7 86.516 300.58 85.604 301.22 84.484L305.635 86.644C305.124 87.86 304.324 88.964 303.236 89.956C302.18 90.916 300.9 91.684 299.396 92.26C297.924 92.804 296.308 93.076 294.548 93.076ZM311.793 102.1V66.532H316.977V71.908L316.353 70.66C317.313 69.188 318.593 68.036 320.193 67.204C321.793 66.372 323.617 65.956 325.665 65.956C328.129 65.956 330.337 66.548 332.289 67.732C334.273 68.916 335.825 70.532 336.945 72.58C338.097 74.628 338.673 76.932 338.673 79.492C338.673 82.052 338.097 84.356 336.945 86.404C335.825 88.452 334.289 90.084 332.337 91.3C330.385 92.484 328.161 93.076 325.665 93.076C323.649 93.076 321.809 92.66 320.145 91.828C318.513 90.996 317.249 89.796 316.353 88.228L317.217 87.22V102.1H311.793ZM325.137 88.036C326.673 88.036 328.033 87.668 329.217 86.932C330.401 86.196 331.329 85.188 332.001 83.908C332.705 82.596 333.057 81.124 333.057 79.492C333.057 77.86 332.705 76.404 332.001 75.124C331.329 73.844 330.401 72.836 329.217 72.1C328.033 71.364 326.673 70.996 325.137 70.996C323.633 70.996 322.273 71.364 321.057 72.1C319.873 72.836 318.929 73.844 318.225 75.124C317.553 76.404 317.217 77.86 317.217 79.492C317.217 81.124 317.553 82.596 318.225 83.908C318.929 85.188 319.873 86.196 321.057 86.932C322.273 87.668 323.633 88.036 325.137 88.036ZM356.477 93.076C353.981 93.076 351.693 92.484 349.613 91.3C347.565 90.116 345.933 88.5 344.717 86.452C343.501 84.404 342.893 82.084 342.893 79.492C342.893 76.868 343.501 74.548 344.717 72.532C345.933 70.484 347.565 68.884 349.613 67.732C351.661 66.548 353.949 65.956 356.477 65.956C359.037 65.956 361.325 66.548 363.341 67.732C365.389 68.884 367.005 70.484 368.189 72.532C369.405 74.548 370.013 76.868 370.013 79.492C370.013 82.116 369.405 84.452 368.189 86.5C366.973 88.548 365.341 90.164 363.293 91.348C361.245 92.5 358.973 93.076 356.477 93.076ZM356.477 88.036C358.013 88.036 359.373 87.668 360.557 86.932C361.741 86.196 362.669 85.188 363.341 83.908C364.045 82.596 364.397 81.124 364.397 79.492C364.397 77.86 364.045 76.404 363.341 75.124C362.669 73.844 361.741 72.836 360.557 72.1C359.373 71.364 358.013 70.996 356.477 70.996C354.973 70.996 353.613 71.364 352.397 72.1C351.213 72.836 350.269 73.844 349.565 75.124C348.893 76.404 348.557 77.86 348.557 79.492C348.557 81.124 348.893 82.596 349.565 83.908C350.269 85.188 351.213 86.196 352.397 86.932C353.613 87.668 354.973 88.036 356.477 88.036ZM375.309 92.5V66.532H380.493V71.62L379.869 70.948C380.509 69.316 381.533 68.084 382.941 67.252C384.349 66.388 385.981 65.956 387.837 65.956C389.757 65.956 391.453 66.372 392.925 67.204C394.397 68.036 395.549 69.188 396.381 70.66C397.213 72.132 397.629 73.828 397.629 75.748V92.5H392.253V77.188C392.253 75.876 392.013 74.772 391.533 73.876C391.053 72.948 390.365 72.244 389.469 71.764C388.605 71.252 387.613 70.996 386.493 70.996C385.373 70.996 384.365 71.252 383.469 71.764C382.605 72.244 381.933 72.948 381.453 73.876C380.973 74.804 380.733 75.908 380.733 77.188V92.5H375.309ZM453.777 92.5V56.164H459.201V80.5L457.089 79.972L470.097 66.532H476.865L467.073 76.948L477.297 92.5H471.057L461.937 78.724L465.153 78.292L457.473 86.452L459.201 82.852V92.5H453.777ZM488.788 93.076C487.028 93.076 485.476 92.772 484.132 92.164C482.82 91.524 481.796 90.66 481.06 89.572C480.324 88.452 479.956 87.14 479.956 85.636C479.956 84.228 480.26 82.964 480.868 81.844C481.508 80.724 482.484 79.78 483.796 79.012C485.108 78.244 486.756 77.7 488.74 77.38L497.764 75.892V80.164L489.796 81.556C488.356 81.812 487.3 82.276 486.628 82.948C485.956 83.588 485.62 84.42 485.62 85.444C485.62 86.436 485.988 87.252 486.724 87.892C487.492 88.5 488.468 88.804 489.652 88.804C491.124 88.804 492.404 88.484 493.492 87.844C494.612 87.204 495.476 86.356 496.084 85.3C496.692 84.212 496.996 83.012 496.996 81.7V75.028C496.996 73.748 496.516 72.708 495.556 71.908C494.628 71.076 493.38 70.66 491.812 70.66C490.372 70.66 489.108 71.044 488.02 71.812C486.964 72.548 486.18 73.508 485.668 74.692L481.156 72.436C481.636 71.156 482.42 70.036 483.508 69.076C484.596 68.084 485.86 67.316 487.3 66.772C488.772 66.228 490.324 65.956 491.956 65.956C494.004 65.956 495.812 66.34 497.38 67.108C498.98 67.876 500.212 68.948 501.076 70.324C501.972 71.668 502.42 73.236 502.42 75.028V92.5H497.236V87.796L498.34 87.94C497.732 88.996 496.948 89.908 495.988 90.676C495.06 91.444 493.988 92.036 492.772 92.452C491.588 92.868 490.26 93.076 488.788 93.076ZM508.762 92.5V66.532H513.946V72.148L513.274 71.284C513.818 69.524 514.81 68.196 516.25 67.3C517.69 66.404 519.338 65.956 521.194 65.956C523.274 65.956 525.114 66.516 526.714 67.636C528.346 68.724 529.434 70.18 529.978 72.004L528.442 72.148C529.21 70.068 530.378 68.516 531.946 67.492C533.546 66.468 535.37 65.956 537.418 65.956C539.21 65.956 540.826 66.372 542.266 67.204C543.738 68.036 544.906 69.188 545.77 70.66C546.634 72.132 547.066 73.812 547.066 75.7V92.5H541.642V77.188C541.642 75.876 541.402 74.772 540.922 73.876C540.474 72.948 539.834 72.244 539.002 71.764C538.202 71.252 537.258 70.996 536.17 70.996C535.082 70.996 534.122 71.252 533.29 71.764C532.458 72.244 531.802 72.948 531.322 73.876C530.842 74.804 530.602 75.908 530.602 77.188V92.5H525.226V77.188C525.226 75.876 524.986 74.772 524.506 73.876C524.058 72.948 523.418 72.244 522.586 71.764C521.786 71.252 520.826 70.996 519.706 70.996C518.618 70.996 517.658 71.252 516.826 71.764C515.994 72.244 515.338 72.948 514.858 73.876C514.41 74.804 514.186 75.908 514.186 77.188V92.5H508.762ZM552.871 92.5V66.532H558.295V92.5H552.871ZM552.871 62.98V56.74H558.295V62.98H552.871ZM567.037 92.5V86.26H572.557V92.5H567.037ZM3.168 140.5V104.164H8.592V128.5L6.48 127.972L19.488 114.532H26.256L16.464 124.948L26.688 140.5H20.448L11.328 126.724L14.544 126.292L6.864 134.452L8.592 130.852V140.5H3.168ZM38.1784 141.076C36.4184 141.076 34.8664 140.772 33.5224 140.164C32.2104 139.524 31.1864 138.66 30.4504 137.572C29.7144 136.452 29.3464 135.14 29.3464 133.636C29.3464 132.228 29.6504 130.964 30.2584 129.844C30.8984 128.724 31.8744 127.78 33.1864 127.012C34.4984 126.244 36.1464 125.7 38.1304 125.38L47.1544 123.892V128.164L39.1864 129.556C37.7464 129.812 36.6904 130.276 36.0184 130.948C35.3464 131.588 35.0104 132.42 35.0104 133.444C35.0104 134.436 35.3784 135.252 36.1144 135.892C36.8824 136.5 37.8584 136.804 39.0424 136.804C40.5144 136.804 41.7944 136.484 42.8824 135.844C44.0024 135.204 44.8664 134.356 45.4744 133.3C46.0824 132.212 46.3864 131.012 46.3864 129.7V123.028C46.3864 121.748 45.9064 120.708 44.9464 119.908C44.0184 119.076 42.7704 118.66 41.2024 118.66C39.7624 118.66 38.4984 119.044 37.4104 119.812C36.3544 120.548 35.5704 121.508 35.0584 122.692L30.5464 120.436C31.0264 119.156 31.8104 118.036 32.8984 117.076C33.9864 116.084 35.2504 115.316 36.6904 114.772C38.1624 114.228 39.7144 113.956 41.3464 113.956C43.3944 113.956 45.2024 114.34 46.7704 115.108C48.3704 115.876 49.6024 116.948 50.4664 118.324C51.3624 119.668 51.8104 121.236 51.8104 123.028V140.5H46.6264V135.796L47.7304 135.94C47.1224 136.996 46.3384 137.908 45.3784 138.676C44.4504 139.444 43.3784 140.036 42.1624 140.452C40.9784 140.868 39.6504 141.076 38.1784 141.076ZM58.1524 140.5V114.532H63.3364V120.148L62.6644 119.284C63.2084 117.524 64.2004 116.196 65.6404 115.3C67.0804 114.404 68.7284 113.956 70.5844 113.956C72.6644 113.956 74.5044 114.516 76.1044 115.636C77.7364 116.724 78.8244 118.18 79.3684 120.004L77.8324 120.148C78.6004 118.068 79.7684 116.516 81.3364 115.492C82.9364 114.468 84.7604 113.956 86.8084 113.956C88.6004 113.956 90.2164 114.372 91.6564 115.204C93.1284 116.036 94.2964 117.188 95.1604 118.66C96.0244 120.132 96.4564 121.812 96.4564 123.7V140.5H91.0324V125.188C91.0324 123.876 90.7924 122.772 90.3124 121.876C89.8644 120.948 89.2244 120.244 88.3924 119.764C87.5924 119.252 86.6484 118.996 85.5604 118.996C84.4724 118.996 83.5124 119.252 82.6804 119.764C81.8484 120.244 81.1924 120.948 80.7124 121.876C80.2324 122.804 79.9924 123.908 79.9924 125.188V140.5H74.6164V125.188C74.6164 123.876 74.3764 122.772 73.8964 121.876C73.4484 120.948 72.8084 120.244 71.9764 119.764C71.1764 119.252 70.2164 118.996 69.0964 118.996C68.0084 118.996 67.0484 119.252 66.2164 119.764C65.3844 120.244 64.7284 120.948 64.2484 121.876C63.8004 122.804 63.5764 123.908 63.5764 125.188V140.5H58.1524ZM102.262 140.5V114.532H107.686V140.5H102.262ZM102.262 110.98V104.74H107.686V110.98H102.262ZM130.194 141.076C128.434 141.076 126.882 140.772 125.538 140.164C124.226 139.524 123.202 138.66 122.466 137.572C121.73 136.452 121.362 135.14 121.362 133.636C121.362 132.228 121.666 130.964 122.274 129.844C122.914 128.724 123.89 127.78 125.202 127.012C126.514 126.244 128.162 125.7 130.146 125.38L139.17 123.892V128.164L131.202 129.556C129.762 129.812 128.706 130.276 128.034 130.948C127.362 131.588 127.026 132.42 127.026 133.444C127.026 134.436 127.394 135.252 128.13 135.892C128.898 136.5 129.874 136.804 131.058 136.804C132.53 136.804 133.81 136.484 134.898 135.844C136.018 135.204 136.882 134.356 137.49 133.3C138.098 132.212 138.402 131.012 138.402 129.7V123.028C138.402 121.748 137.922 120.708 136.962 119.908C136.034 119.076 134.786 118.66 133.218 118.66C131.778 118.66 130.514 119.044 129.426 119.812C128.37 120.548 127.586 121.508 127.074 122.692L122.562 120.436C123.042 119.156 123.826 118.036 124.914 117.076C126.002 116.084 127.266 115.316 128.706 114.772C130.178 114.228 131.73 113.956 133.362 113.956C135.41 113.956 137.218 114.34 138.786 115.108C140.386 115.876 141.618 116.948 142.482 118.324C143.378 119.668 143.826 121.236 143.826 123.028V140.5H138.642V135.796L139.746 135.94C139.138 136.996 138.354 137.908 137.394 138.676C136.466 139.444 135.394 140.036 134.178 140.452C132.994 140.868 131.666 141.076 130.194 141.076ZM150.168 140.5V104.164H155.592V128.5L153.48 127.972L166.488 114.532H173.256L163.464 124.948L173.688 140.5H167.448L158.328 126.724L161.544 126.292L153.864 134.452L155.592 130.852V140.5H150.168ZM185.178 141.076C183.418 141.076 181.866 140.772 180.522 140.164C179.21 139.524 178.186 138.66 177.45 137.572C176.714 136.452 176.346 135.14 176.346 133.636C176.346 132.228 176.65 130.964 177.258 129.844C177.898 128.724 178.874 127.78 180.186 127.012C181.498 126.244 183.146 125.7 185.13 125.38L194.154 123.892V128.164L186.186 129.556C184.746 129.812 183.69 130.276 183.018 130.948C182.346 131.588 182.01 132.42 182.01 133.444C182.01 134.436 182.378 135.252 183.114 135.892C183.882 136.5 184.858 136.804 186.042 136.804C187.514 136.804 188.794 136.484 189.882 135.844C191.002 135.204 191.866 134.356 192.474 133.3C193.082 132.212 193.386 131.012 193.386 129.7V123.028C193.386 121.748 192.906 120.708 191.946 119.908C191.018 119.076 189.77 118.66 188.202 118.66C186.762 118.66 185.498 119.044 184.41 119.812C183.354 120.548 182.57 121.508 182.058 122.692L177.546 120.436C178.026 119.156 178.81 118.036 179.898 117.076C180.986 116.084 182.25 115.316 183.69 114.772C185.162 114.228 186.714 113.956 188.346 113.956C190.394 113.956 192.202 114.34 193.77 115.108C195.37 115.876 196.602 116.948 197.466 118.324C198.362 119.668 198.81 121.236 198.81 123.028V140.5H193.626V135.796L194.73 135.94C194.122 136.996 193.338 137.908 192.378 138.676C191.45 139.444 190.378 140.036 189.162 140.452C187.978 140.868 186.65 141.076 185.178 141.076ZM205.152 140.5V114.532H210.336V119.62L209.712 118.948C210.352 117.316 211.376 116.084 212.784 115.252C214.192 114.388 215.824 113.956 217.68 113.956C219.6 113.956 221.296 114.372 222.768 115.204C224.24 116.036 225.392 117.188 226.224 118.66C227.056 120.132 227.472 121.828 227.472 123.748V140.5H222.096V125.188C222.096 123.876 221.856 122.772 221.376 121.876C220.896 120.948 220.208 120.244 219.312 119.764C218.448 119.252 217.456 118.996 216.336 118.996C215.216 118.996 214.208 119.252 213.312 119.764C212.448 120.244 211.776 120.948 211.296 121.876C210.816 122.804 210.576 123.908 210.576 125.188V140.5H205.152ZM241.668 140.5V114.532H246.852V120.148L246.18 119.284C246.724 117.524 247.716 116.196 249.156 115.3C250.596 114.404 252.244 113.956 254.1 113.956C256.18 113.956 258.02 114.516 259.62 115.636C261.252 116.724 262.34 118.18 262.884 120.004L261.348 120.148C262.116 118.068 263.284 116.516 264.852 115.492C266.452 114.468 268.276 113.956 270.324 113.956C272.116 113.956 273.732 114.372 275.172 115.204C276.644 116.036 277.812 117.188 278.676 118.66C279.54 120.132 279.972 121.812 279.972 123.7V140.5H274.548V125.188C274.548 123.876 274.308 122.772 273.828 121.876C273.38 120.948 272.74 120.244 271.908 119.764C271.108 119.252 270.164 118.996 269.076 118.996C267.988 118.996 267.028 119.252 266.196 119.764C265.364 120.244 264.708 120.948 264.228 121.876C263.748 122.804 263.508 123.908 263.508 125.188V140.5H258.132V125.188C258.132 123.876 257.892 122.772 257.412 121.876C256.964 120.948 256.324 120.244 255.492 119.764C254.692 119.252 253.732 118.996 252.612 118.996C251.524 118.996 250.564 119.252 249.732 119.764C248.9 120.244 248.244 120.948 247.764 121.876C247.316 122.804 247.092 123.908 247.092 125.188V140.5H241.668ZM297.969 141.076C295.377 141.076 293.073 140.484 291.057 139.3C289.073 138.084 287.521 136.452 286.401 134.404C285.281 132.324 284.721 130.004 284.721 127.444C284.721 124.82 285.281 122.5 286.401 120.484C287.553 118.468 289.089 116.884 291.009 115.732C292.929 114.548 295.105 113.956 297.537 113.956C299.489 113.956 301.233 114.292 302.769 114.964C304.305 115.636 305.601 116.564 306.657 117.748C307.713 118.9 308.513 120.228 309.057 121.732C309.633 123.236 309.921 124.836 309.921 126.532C309.921 126.948 309.905 127.38 309.873 127.828C309.841 128.276 309.777 128.692 309.681 129.076H288.993V124.756H306.609L304.017 126.724C304.337 125.156 304.225 123.764 303.681 122.548C303.169 121.3 302.369 120.324 301.281 119.62C300.225 118.884 298.977 118.516 297.537 118.516C296.097 118.516 294.817 118.884 293.697 119.62C292.577 120.324 291.713 121.348 291.105 122.692C290.497 124.004 290.257 125.604 290.385 127.492C290.225 129.252 290.465 130.788 291.105 132.1C291.777 133.412 292.705 134.436 293.889 135.172C295.105 135.908 296.481 136.276 298.017 136.276C299.585 136.276 300.913 135.924 302.001 135.22C303.121 134.516 304.001 133.604 304.641 132.484L309.057 134.644C308.545 135.86 307.745 136.964 306.657 137.956C305.601 138.916 304.321 139.684 302.817 140.26C301.345 140.804 299.729 141.076 297.969 141.076ZM315.215 140.5V114.532H320.399V120.148L319.727 119.284C320.271 117.524 321.263 116.196 322.703 115.3C324.143 114.404 325.791 113.956 327.647 113.956C329.727 113.956 331.567 114.516 333.167 115.636C334.799 116.724 335.887 118.18 336.431 120.004L334.895 120.148C335.663 118.068 336.831 116.516 338.399 115.492C339.999 114.468 341.823 113.956 343.871 113.956C345.663 113.956 347.279 114.372 348.719 115.204C350.191 116.036 351.359 117.188 352.223 118.66C353.087 120.132 353.519 121.812 353.519 123.7V140.5H348.095V125.188C348.095 123.876 347.855 122.772 347.375 121.876C346.927 120.948 346.287 120.244 345.455 119.764C344.655 119.252 343.711 118.996 342.623 118.996C341.535 118.996 340.575 119.252 339.743 119.764C338.911 120.244 338.255 120.948 337.775 121.876C337.295 122.804 337.055 123.908 337.055 125.188V140.5H331.679V125.188C331.679 123.876 331.439 122.772 330.959 121.876C330.511 120.948 329.871 120.244 329.039 119.764C328.239 119.252 327.279 118.996 326.159 118.996C325.071 118.996 324.111 119.252 323.279 119.764C322.447 120.244 321.791 120.948 321.311 121.876C320.863 122.804 320.639 123.908 320.639 125.188V140.5H315.215ZM373.196 141.076C371.18 141.076 369.34 140.66 367.676 139.828C366.044 138.996 364.78 137.796 363.884 136.228L364.508 135.22V140.5H359.324V104.164H364.748V119.908L363.884 118.66C364.844 117.188 366.124 116.036 367.724 115.204C369.324 114.372 371.148 113.956 373.196 113.956C375.66 113.956 377.868 114.548 379.82 115.732C381.804 116.916 383.356 118.532 384.476 120.58C385.628 122.628 386.204 124.932 386.204 127.492C386.204 130.052 385.628 132.356 384.476 134.404C383.356 136.452 381.82 138.084 379.868 139.3C377.916 140.484 375.692 141.076 373.196 141.076ZM372.668 136.036C374.204 136.036 375.564 135.668 376.748 134.932C377.932 134.196 378.86 133.188 379.532 131.908C380.236 130.596 380.588 129.124 380.588 127.492C380.588 125.86 380.236 124.404 379.532 123.124C378.86 121.844 377.932 120.836 376.748 120.1C375.564 119.364 374.204 118.996 372.668 118.996C371.164 118.996 369.804 119.364 368.588 120.1C367.404 120.836 366.46 121.844 365.756 123.124C365.084 124.404 364.748 125.86 364.748 127.492C364.748 129.124 365.084 130.596 365.756 131.908C366.46 133.188 367.404 134.196 368.588 134.932C369.804 135.668 371.164 136.036 372.668 136.036ZM399.257 141.076C397.497 141.076 395.945 140.772 394.601 140.164C393.289 139.524 392.265 138.66 391.529 137.572C390.793 136.452 390.425 135.14 390.425 133.636C390.425 132.228 390.729 130.964 391.337 129.844C391.977 128.724 392.953 127.78 394.265 127.012C395.577 126.244 397.225 125.7 399.209 125.38L408.233 123.892V128.164L400.265 129.556C398.825 129.812 397.769 130.276 397.097 130.948C396.425 131.588 396.089 132.42 396.089 133.444C396.089 134.436 396.457 135.252 397.193 135.892C397.961 136.5 398.937 136.804 400.121 136.804C401.593 136.804 402.873 136.484 403.961 135.844C405.081 135.204 405.945 134.356 406.553 133.3C407.161 132.212 407.465 131.012 407.465 129.7V123.028C407.465 121.748 406.985 120.708 406.025 119.908C405.097 119.076 403.849 118.66 402.281 118.66C400.841 118.66 399.577 119.044 398.489 119.812C397.433 120.548 396.649 121.508 396.137 122.692L391.625 120.436C392.105 119.156 392.889 118.036 393.977 117.076C395.065 116.084 396.329 115.316 397.769 114.772C399.241 114.228 400.793 113.956 402.424 113.956C404.473 113.956 406.281 114.34 407.849 115.108C409.449 115.876 410.681 116.948 411.545 118.324C412.441 119.668 412.889 121.236 412.889 123.028V140.5H407.705V135.796L408.809 135.94C408.201 136.996 407.417 137.908 406.457 138.676C405.529 139.444 404.457 140.036 403.241 140.452C402.057 140.868 400.729 141.076 399.257 141.076ZM419.23 140.5V104.164H424.655V140.5H419.23ZM438.772 141.076C437.012 141.076 435.46 140.772 434.116 140.164C432.804 139.524 431.78 138.66 431.044 137.572C430.308 136.452 429.94 135.14 429.94 133.636C429.94 132.228 430.244 130.964 430.852 129.844C431.492 128.724 432.468 127.78 433.78 127.012C435.092 126.244 436.74 125.7 438.724 125.38L447.748 123.892V128.164L439.78 129.556C438.34 129.812 437.284 130.276 436.612 130.948C435.94 131.588 435.604 132.42 435.604 133.444C435.604 134.436 435.972 135.252 436.708 135.892C437.476 136.5 438.452 136.804 439.636 136.804C441.108 136.804 442.388 136.484 443.476 135.844C444.596 135.204 445.46 134.356 446.068 133.3C446.676 132.212 446.98 131.012 446.98 129.7V123.028C446.98 121.748 446.5 120.708 445.54 119.908C444.612 119.076 443.364 118.66 441.796 118.66C440.356 118.66 439.092 119.044 438.004 119.812C436.948 120.548 436.164 121.508 435.652 122.692L431.14 120.436C431.62 119.156 432.404 118.036 433.492 117.076C434.58 116.084 435.844 115.316 437.284 114.772C438.756 114.228 440.308 113.956 441.94 113.956C443.988 113.956 445.796 114.34 447.364 115.108C448.964 115.876 450.196 116.948 451.06 118.324C451.956 119.668 452.404 121.236 452.404 123.028V140.5H447.22V135.796L448.324 135.94C447.716 136.996 446.932 137.908 445.972 138.676C445.044 139.444 443.972 140.036 442.756 140.452C441.572 140.868 440.244 141.076 438.772 141.076ZM468.346 141.076C465.69 141.076 463.354 140.42 461.338 139.108C459.354 137.796 457.962 136.036 457.162 133.828L461.338 131.86C462.042 133.332 463.002 134.5 464.218 135.364C465.466 136.228 466.842 136.66 468.346 136.66C469.626 136.66 470.666 136.372 471.466 135.796C472.266 135.22 472.666 134.436 472.666 133.444C472.666 132.804 472.49 132.292 472.138 131.908C471.786 131.492 471.338 131.156 470.794 130.9C470.282 130.644 469.754 130.452 469.21 130.324L465.13 129.172C462.89 128.532 461.21 127.572 460.09 126.292C459.002 124.98 458.458 123.46 458.458 121.732C458.458 120.164 458.858 118.804 459.658 117.652C460.458 116.468 461.562 115.556 462.97 114.916C464.378 114.276 465.962 113.956 467.722 113.956C470.09 113.956 472.202 114.548 474.058 115.732C475.914 116.884 477.226 118.5 477.994 120.58L473.818 122.548C473.306 121.3 472.49 120.308 471.37 119.572C470.282 118.836 469.05 118.468 467.674 118.468C466.49 118.468 465.546 118.756 464.842 119.332C464.138 119.876 463.786 120.596 463.786 121.492C463.786 122.1 463.946 122.612 464.266 123.028C464.586 123.412 465.002 123.732 465.514 123.988C466.026 124.212 466.554 124.404 467.098 124.564L471.322 125.812C473.466 126.42 475.114 127.38 476.266 128.692C477.418 129.972 477.994 131.508 477.994 133.3C477.994 134.836 477.578 136.196 476.746 137.38C475.946 138.532 474.826 139.444 473.386 140.116C471.946 140.756 470.266 141.076 468.346 141.076ZM483.309 140.5V114.532H488.493V119.62L487.869 118.948C488.509 117.316 489.533 116.084 490.941 115.252C492.349 114.388 493.981 113.956 495.837 113.956C497.757 113.956 499.453 114.372 500.925 115.204C502.397 116.036 503.549 117.188 504.381 118.66C505.213 120.132 505.629 121.828 505.629 123.748V140.5H500.253V125.188C500.253 123.876 500.013 122.772 499.533 121.876C499.053 120.948 498.365 120.244 497.469 119.764C496.605 119.252 495.613 118.996 494.493 118.996C493.373 118.996 492.365 119.252 491.469 119.764C490.605 120.244 489.933 120.948 489.453 121.876C488.973 122.804 488.733 123.908 488.733 125.188V140.5H483.309ZM513.269 151.06C512.629 151.06 511.989 150.996 511.349 150.868C510.741 150.772 510.181 150.612 509.669 150.388V145.732C510.053 145.828 510.517 145.908 511.061 145.972C511.605 146.068 512.133 146.116 512.645 146.116C514.149 146.116 515.253 145.78 515.957 145.108C516.693 144.468 517.349 143.476 517.925 142.132L519.653 138.196L519.557 142.756L508.325 114.532H514.133L522.437 136.18H520.469L528.725 114.532H534.581L523.109 143.332C522.501 144.868 521.733 146.212 520.805 147.364C519.909 148.548 518.837 149.46 517.589 150.1C516.373 150.74 514.933 151.06 513.269 151.06ZM545.132 141.076C543.372 141.076 541.82 140.772 540.476 140.164C539.164 139.524 538.14 138.66 537.404 137.572C536.668 136.452 536.3 135.14 536.3 133.636C536.3 132.228 536.604 130.964 537.212 129.844C537.852 128.724 538.828 127.78 540.14 127.012C541.452 126.244 543.1 125.7 545.084 125.38L554.108 123.892V128.164L546.14 129.556C544.7 129.812 543.644 130.276 542.972 130.948C542.3 131.588 541.964 132.42 541.964 133.444C541.964 134.436 542.332 135.252 543.068 135.892C543.836 136.5 544.812 136.804 545.996 136.804C547.468 136.804 548.748 136.484 549.836 135.844C550.956 135.204 551.82 134.356 552.428 133.3C553.036 132.212 553.34 131.012 553.34 129.7V123.028C553.34 121.748 552.86 120.708 551.9 119.908C550.972 119.076 549.724 118.66 548.156 118.66C546.716 118.66 545.452 119.044 544.364 119.812C543.308 120.548 542.524 121.508 542.012 122.692L537.5 120.436C537.98 119.156 538.764 118.036 539.852 117.076C540.94 116.084 542.204 115.316 543.644 114.772C545.116 114.228 546.668 113.956 548.299 113.956C550.348 113.956 552.156 114.34 553.724 115.108C555.324 115.876 556.556 116.948 557.42 118.324C558.316 119.668 558.764 121.236 558.764 123.028V140.5H553.58V135.796L554.684 135.94C554.076 136.996 553.292 137.908 552.332 138.676C551.404 139.444 550.332 140.036 549.116 140.452C547.932 140.868 546.604 141.076 545.132 141.076ZM15.168 189.076C12.672 189.076 10.432 188.484 8.448 187.3C6.496 186.084 4.944 184.452 3.792 182.404C2.672 180.356 2.112 178.052 2.112 175.492C2.112 172.932 2.688 170.628 3.84 168.58C4.992 166.532 6.544 164.916 8.496 163.732C10.448 162.548 12.656 161.956 15.12 161.956C17.2 161.956 19.04 162.372 20.64 163.204C22.24 164.036 23.504 165.188 24.432 166.66L23.616 167.908V152.164H28.992V188.5H23.856V183.22L24.48 184.228C23.584 185.796 22.304 186.996 20.64 187.828C18.976 188.66 17.152 189.076 15.168 189.076ZM15.696 184.036C17.2 184.036 18.544 183.668 19.728 182.932C20.944 182.196 21.888 181.188 22.56 179.908C23.264 178.596 23.616 177.124 23.616 175.492C23.616 173.86 23.264 172.404 22.56 171.124C21.888 169.844 20.944 168.836 19.728 168.1C18.544 167.364 17.2 166.996 15.696 166.996C14.192 166.996 12.832 167.364 11.616 168.1C10.4 168.836 9.456 169.844 8.784 171.124C8.112 172.404 7.776 173.86 7.776 175.492C7.776 177.124 8.112 178.596 8.784 179.908C9.456 181.188 10.384 182.196 11.568 182.932C12.784 183.668 14.16 184.036 15.696 184.036ZM43.1003 189.076C41.3403 189.076 39.7883 188.772 38.4443 188.164C37.1323 187.524 36.1083 186.66 35.3723 185.572C34.6363 184.452 34.2683 183.14 34.2683 181.636C34.2683 180.228 34.5723 178.964 35.1803 177.844C35.8203 176.724 36.7963 175.78 38.1083 175.012C39.4203 174.244 41.0683 173.7 43.0523 173.38L52.0763 171.892V176.164L44.1083 177.556C42.6683 177.812 41.6123 178.276 40.9403 178.948C40.2683 179.588 39.9323 180.42 39.9323 181.444C39.9323 182.436 40.3003 183.252 41.0363 183.892C41.8043 184.5 42.7803 184.804 43.9643 184.804C45.4363 184.804 46.7163 184.484 47.8043 183.844C48.9243 183.204 49.7883 182.356 50.3963 181.3C51.0043 180.212 51.3083 179.012 51.3083 177.7V171.028C51.3083 169.748 50.8283 168.708 49.8683 167.908C48.9403 167.076 47.6923 166.66 46.1243 166.66C44.6843 166.66 43.4203 167.044 42.3323 167.812C41.2763 168.548 40.4923 169.508 39.9803 170.692L35.4683 168.436C35.9483 167.156 36.7323 166.036 37.8203 165.076C38.9083 164.084 40.1723 163.316 41.6123 162.772C43.0843 162.228 44.6363 161.956 46.2682 161.956C48.3163 161.956 50.1243 162.34 51.6923 163.108C53.2923 163.876 54.5243 164.948 55.3883 166.324C56.2843 167.668 56.7323 169.236 56.7323 171.028V188.5H51.5483V183.796L52.6523 183.94C52.0443 184.996 51.2603 185.908 50.3003 186.676C49.3723 187.444 48.3003 188.036 47.0843 188.452C45.9003 188.868 44.5723 189.076 43.1003 189.076ZM63.0742 188.5V152.164H68.4983V188.5H63.0742ZM82.6159 189.076C80.8559 189.076 79.3039 188.772 77.9599 188.164C76.6479 187.524 75.6239 186.66 74.8879 185.572C74.1519 184.452 73.7839 183.14 73.7839 181.636C73.7839 180.228 74.0879 178.964 74.6959 177.844C75.3359 176.724 76.3119 175.78 77.6239 175.012C78.9359 174.244 80.5839 173.7 82.5679 173.38L91.5919 171.892V176.164L83.6239 177.556C82.1839 177.812 81.1279 178.276 80.4559 178.948C79.7839 179.588 79.4479 180.42 79.4479 181.444C79.4479 182.436 79.8159 183.252 80.5519 183.892C81.3199 184.5 82.2959 184.804 83.4799 184.804C84.9519 184.804 86.2319 184.484 87.3199 183.844C88.4399 183.204 89.3039 182.356 89.9119 181.3C90.5199 180.212 90.8239 179.012 90.8239 177.7V171.028C90.8239 169.748 90.3439 168.708 89.3839 167.908C88.4559 167.076 87.2079 166.66 85.6399 166.66C84.1999 166.66 82.9359 167.044 81.8479 167.812C80.7919 168.548 80.0079 169.508 79.4959 170.692L74.9839 168.436C75.4639 167.156 76.2479 166.036 77.3359 165.076C78.4239 164.084 79.6879 163.316 81.1279 162.772C82.5999 162.228 84.1519 161.956 85.7839 161.956C87.8319 161.956 89.6399 162.34 91.2079 163.108C92.8079 163.876 94.0399 164.948 94.9039 166.324C95.7999 167.668 96.2479 169.236 96.2479 171.028V188.5H91.0639V183.796L92.1679 183.94C91.5599 184.996 90.7759 185.908 89.8159 186.676C88.8879 187.444 87.8159 188.036 86.5999 188.452C85.4159 188.868 84.0879 189.076 82.6159 189.076ZM102.59 188.5V162.532H107.774V168.148L107.102 167.284C107.646 165.524 108.638 164.196 110.078 163.3C111.518 162.404 113.166 161.956 115.022 161.956C117.102 161.956 118.942 162.516 120.542 163.636C122.174 164.724 123.262 166.18 123.806 168.004L122.27 168.148C123.038 166.068 124.206 164.516 125.774 163.492C127.374 162.468 129.198 161.956 131.246 161.956C133.038 161.956 134.654 162.372 136.094 163.204C137.566 164.036 138.734 165.188 139.598 166.66C140.462 168.132 140.894 169.812 140.894 171.7V188.5H135.47V173.188C135.47 171.876 135.23 170.772 134.75 169.876C134.302 168.948 133.662 168.244 132.83 167.764C132.03 167.252 131.086 166.996 129.998 166.996C128.91 166.996 127.95 167.252 127.118 167.764C126.286 168.244 125.63 168.948 125.15 169.876C124.67 170.804 124.43 171.908 124.43 173.188V188.5H119.054V173.188C119.054 171.876 118.814 170.772 118.334 169.876C117.886 168.948 117.246 168.244 116.414 167.764C115.614 167.252 114.654 166.996 113.534 166.996C112.446 166.996 111.486 167.252 110.654 167.764C109.822 168.244 109.166 168.948 108.686 169.876C108.238 170.804 108.014 171.908 108.014 173.188V188.5H102.59ZM161.378 188.5L152.45 162.532H158.21L165.026 183.22H163.01L169.97 162.532H174.914L181.826 183.22H179.81L186.674 162.532H192.434L183.458 188.5H178.562L171.554 167.332H173.33L166.322 188.5H161.378ZM202.991 189.076C201.231 189.076 199.679 188.772 198.335 188.164C197.023 187.524 195.999 186.66 195.263 185.572C194.527 184.452 194.159 183.14 194.159 181.636C194.159 180.228 194.463 178.964 195.071 177.844C195.711 176.724 196.687 175.78 197.999 175.012C199.311 174.244 200.959 173.7 202.943 173.38L211.967 171.892V176.164L203.999 177.556C202.559 177.812 201.503 178.276 200.831 178.948C200.159 179.588 199.823 180.42 199.823 181.444C199.823 182.436 200.191 183.252 200.927 183.892C201.695 184.5 202.671 184.804 203.855 184.804C205.327 184.804 206.607 184.484 207.695 183.844C208.815 183.204 209.679 182.356 210.287 181.3C210.895 180.212 211.199 179.012 211.199 177.7V171.028C211.199 169.748 210.719 168.708 209.759 167.908C208.831 167.076 207.583 166.66 206.015 166.66C204.575 166.66 203.311 167.044 202.223 167.812C201.167 168.548 200.383 169.508 199.871 170.692L195.359 168.436C195.839 167.156 196.623 166.036 197.711 165.076C198.799 164.084 200.063 163.316 201.503 162.772C202.975 162.228 204.527 161.956 206.159 161.956C208.207 161.956 210.015 162.34 211.583 163.108C213.183 163.876 214.415 164.948 215.279 166.324C216.175 167.668 216.623 169.236 216.623 171.028V188.5H211.439V183.796L212.543 183.94C211.935 184.996 211.151 185.908 210.191 186.676C209.263 187.444 208.191 188.036 206.975 188.452C205.791 188.868 204.463 189.076 202.991 189.076ZM222.965 188.5V152.164H228.389V176.5L226.277 175.972L239.285 162.532H246.053L236.261 172.948L246.485 188.5H240.245L231.125 174.724L234.341 174.292L226.661 182.452L228.389 178.852V188.5H222.965ZM261.431 188.788C258.711 188.788 256.599 188.02 255.095 186.484C253.591 184.948 252.839 182.788 252.839 180.004V167.428H248.279V162.532H248.999C250.215 162.532 251.159 162.18 251.831 161.476C252.503 160.772 252.839 159.812 252.839 158.596V156.58H258.263V162.532H264.167V167.428H258.263V179.764C258.263 180.66 258.407 181.428 258.695 182.068C258.983 182.676 259.447 183.156 260.087 183.508C260.727 183.828 261.559 183.988 262.583 183.988C262.839 183.988 263.127 183.972 263.447 183.94C263.767 183.908 264.071 183.876 264.359 183.844V188.5C263.911 188.564 263.415 188.628 262.871 188.692C262.327 188.756 261.847 188.788 261.431 188.788ZM278.916 189.076C276.964 189.076 275.252 188.644 273.78 187.78C272.308 186.884 271.156 185.652 270.324 184.084C269.524 182.484 269.124 180.644 269.124 178.564V162.532H274.548V178.084C274.548 179.268 274.788 180.308 275.268 181.204C275.748 182.1 276.42 182.804 277.284 183.316C278.148 183.796 279.14 184.036 280.26 184.036C281.412 184.036 282.42 183.78 283.284 183.268C284.148 182.756 284.82 182.036 285.3 181.108C285.812 180.18 286.068 179.092 286.068 177.844V162.532H291.444V188.5H286.308V183.412L286.884 184.084C286.276 185.684 285.268 186.916 283.86 187.78C282.452 188.644 280.804 189.076 278.916 189.076ZM311.448 188.5V157.54H304.584V152.74H317.064V188.5H311.448ZM324.197 188.5V184.42L333.989 173.956C335.909 171.908 337.413 170.26 338.501 169.012C339.621 167.732 340.421 166.612 340.901 165.652C341.413 164.692 341.669 163.684 341.669 162.628C341.669 160.9 341.141 159.572 340.085 158.644C339.029 157.684 337.669 157.204 336.005 157.204C334.277 157.204 332.789 157.7 331.541 158.692C330.293 159.652 329.429 161.06 328.949 162.916L323.957 161.476C324.341 159.588 325.109 157.956 326.261 156.58C327.413 155.172 328.821 154.084 330.485 153.316C332.181 152.548 334.005 152.164 335.957 152.164C338.229 152.164 340.213 152.596 341.909 153.46C343.605 154.292 344.917 155.46 345.845 156.964C346.805 158.468 347.285 160.212 347.285 162.196C347.285 163.508 347.029 164.788 346.517 166.036C346.037 167.252 345.285 168.548 344.261 169.924C343.237 171.268 341.925 172.788 340.325 174.484L331.685 183.7H347.957V188.5H324.197ZM358.059 199.108C357.707 199.108 357.323 199.076 356.907 199.012C356.459 198.98 356.091 198.932 355.803 198.868V194.164C356.411 194.26 357.019 194.308 357.627 194.308C358.971 194.308 360.043 193.956 360.843 193.252C361.643 192.58 362.043 191.556 362.043 190.18V162.532H367.467V190.18C367.467 192.068 367.067 193.684 366.267 195.028C365.467 196.372 364.363 197.38 362.955 198.052C361.547 198.756 359.915 199.108 358.059 199.108ZM362.043 158.98V152.74H367.467V158.98H362.043ZM381.585 189.076C379.825 189.076 378.273 188.772 376.929 188.164C375.617 187.524 374.593 186.66 373.857 185.572C373.121 184.452 372.753 183.14 372.753 181.636C372.753 180.228 373.057 178.964 373.665 177.844C374.305 176.724 375.281 175.78 376.593 175.012C377.905 174.244 379.553 173.7 381.537 173.38L390.561 171.892V176.164L382.593 177.556C381.153 177.812 380.097 178.276 379.425 178.948C378.753 179.588 378.417 180.42 378.417 181.444C378.417 182.436 378.785 183.252 379.521 183.892C380.289 184.5 381.265 184.804 382.449 184.804C383.921 184.804 385.201 184.484 386.289 183.844C387.409 183.204 388.273 182.356 388.881 181.3C389.489 180.212 389.793 179.012 389.793 177.7V171.028C389.793 169.748 389.313 168.708 388.353 167.908C387.425 167.076 386.177 166.66 384.609 166.66C383.169 166.66 381.905 167.044 380.817 167.812C379.761 168.548 378.977 169.508 378.465 170.692L373.953 168.436C374.433 167.156 375.217 166.036 376.305 165.076C377.393 164.084 378.657 163.316 380.097 162.772C381.569 162.228 383.121 161.956 384.753 161.956C386.801 161.956 388.609 162.34 390.177 163.108C391.777 163.876 393.009 164.948 393.873 166.324C394.769 167.668 395.217 169.236 395.217 171.028V188.5H390.033V183.796L391.137 183.94C390.529 184.996 389.745 185.908 388.785 186.676C387.857 187.444 386.785 188.036 385.569 188.452C384.385 188.868 383.057 189.076 381.585 189.076ZM401.559 188.5V162.532H406.743V168.148L406.071 167.284C406.615 165.524 407.607 164.196 409.047 163.3C410.487 162.404 412.135 161.956 413.991 161.956C416.071 161.956 417.911 162.516 419.511 163.636C421.143 164.724 422.231 166.18 422.775 168.004L421.239 168.148C422.007 166.068 423.175 164.516 424.743 163.492C426.343 162.468 428.167 161.956 430.215 161.956C432.007 161.956 433.623 162.372 435.063 163.204C436.535 164.036 437.703 165.188 438.567 166.66C439.431 168.132 439.863 169.812 439.863 171.7V188.5H434.439V173.188C434.439 171.876 434.199 170.772 433.719 169.876C433.271 168.948 432.631 168.244 431.799 167.764C430.999 167.252 430.055 166.996 428.967 166.996C427.879 166.996 426.919 167.252 426.087 167.764C425.255 168.244 424.599 168.948 424.119 169.876C423.639 170.804 423.399 171.908 423.399 173.188V188.5H418.023V173.188C418.023 171.876 417.783 170.772 417.303 169.876C416.855 168.948 416.215 168.244 415.383 167.764C414.583 167.252 413.623 166.996 412.503 166.996C411.415 166.996 410.455 167.252 409.623 167.764C408.791 168.244 408.135 168.948 407.655 169.876C407.207 170.804 406.983 171.908 406.983 173.188V188.5H401.559Z" fill="#2F2D38"/>
<path d="M412.68 63.9315L415.404 61.2071C415.795 60.8166 416.428 60.8166 416.818 61.2071L422.515 66.904C422.906 67.2945 422.906 67.9277 422.515 68.3182L420.15 70.6836C419.861 70.9721 419.79 71.4128 419.972 71.7777C422.082 75.997 425.503 79.4182 429.722 81.5278C430.087 81.7103 430.528 81.6387 430.816 81.3502L433.182 78.9849C433.572 78.5944 434.205 78.5944 434.596 78.9849L440.293 84.6818C440.683 85.0723 440.683 85.7055 440.293 86.096L437.569 88.8204C435.457 90.9317 432.115 91.1693 429.726 89.3777L422.295 83.8048C420.552 82.4971 419.003 80.9483 417.695 79.2048L412.122 71.7741C410.331 69.3854 410.568 66.0428 412.68 63.9315Z" stroke="#E86F43" stroke-width="2.6"/>
</svg>
